# xmcd CD database file
#
# Track frame offsets:
#	150
#	21458
#	34837
#	60995
#	72973
#	86915
#	105030
#	115693
#	130619
#	150334
#	161531
#	173988
#	192912
#	201940
#	220862
#	235487
#
# Disc length: 3285 seconds
#
# Revision: 0
# Processed by: cddbd v1.5.2PL0 Copyright (c) Steve Scherf et al.
# Submitted via: CDex 1.70beta2
#
DISCID=d10cd310
DTITLE=Os Daltons - The Dreher Sessions
DYEAR=2001
DGENRE=Blues
TTITLE0=Dead Flowers
TTITLE1=Blue Suede Shoes
TTITLE2=It's Only Rock'n'Roll
TTITLE3=That's All Right
TTITLE4=Rock This Town
TTITLE5=Me and Bobby McGee
TTITLE6=On The Road Again
TTITLE7=Suspicious Mind
TTITLE8=I Can't Stop Loving You
TTITLE9=Act Naturally
TTITLE10=Rivers Of Babylon
TTITLE11=The Midnigth Special
TTITLE12=Mercedes Benz
TTITLE13=Lay Down Sally
TTITLE14=Madrecita (bonus)
TTITLE15=Honk Tonk Woman (bonus)
EXTD=YEAR: 2001
EXTT0=
EXTT1=
EXTT2=
EXTT3=
EXTT4=
EXTT5=
EXTT6=
EXTT7=
EXTT8=
EXTT9=
EXTT10=
EXTT11=
EXTT12=
EXTT13=
EXTT14=
EXTT15=
PLAYORDER=
